<?xml version="1.0" encoding="UTF-8" standalone="no"?>
<svg width="192px" height="192px" viewBox="0 0 192 192" version="1.1" xmlns="http://www.w3.org/2000/svg" xmlns:xlink="http://www.w3.org/1999/xlink" xmlns:sketch="http://www.bohemiancoding.com/sketch/ns">
    <!-- Generator: Sketch 3.3.2 (12043) - http://www.bohemiancoding.com/sketch -->
    <title>logo</title>
    <desc>Created with Sketch.</desc>
    <defs></defs>
    <g id="Page-1" stroke="none" stroke-width="1" fill="none" fill-rule="evenodd" sketch:type="MSPage">
        <rect id="Rectangle-1" fill="#2962FF" sketch:type="MSShapeGroup" x="0" y="0" width="192" height="192" rx="20"></rect>
        <path d="M23.5374782,127.354861 L18.2107015,54.7938653 L172.506818,54.7938653 L167.02891,127.354861 L152.194723,127.354861 L155.890313,70.0081417 L34.4315752,70.0081417 L38.5227961,127.354861 L23.5374782,127.354861 L23.5374782,127.354861 Z M153.061947,25.0779164 L154.644471,14.798 L36.7804369,14.798 L38.3629612,25.0779164 L153.061947,25.0779164 L153.061947,25.0779164 Z M139.740653,99.423917 L104.220896,99.423917 L104.135044,108.95011 L139.187561,108.95011 L139.740653,99.423917 L139.740653,99.423917 Z M161.864738,45.8433477 L163.447262,33.5074479 L26.8896602,33.5074479 L28.4721845,45.8433477 L161.864738,45.8433477 L161.864738,45.8433477 Z M140.785515,81.4299512 L104.384291,81.4299512 L104.297648,90.9561442 L140.232027,90.9561442 L140.785515,81.4299512 L140.785515,81.4299512 Z M138.143886,126.943665 L138.696187,117.417472 L115.713583,117.417472 L115.466709,126.943665 L138.143886,126.943665 L138.143886,126.943665 Z M57.8826068,115.552695 C50.7952718,117.084813 51.5825777,120.587387 52.0102549,126.943665 L101.373539,126.943665 C101.406772,120.587387 101.976481,117.084402 94.7945898,115.552695 C87.5774879,114.019754 80.8335607,112.677608 83.9780364,107.028588 C93.8779126,89.8343997 86.2054393,80.6383977 75.2551626,80.6383977 C64.0888714,80.6383977 57.1957913,90.1867953 68.1702015,107.028588 C71.7645097,112.712148 64.8508568,114.053472 57.8826068,115.552695 L57.8826068,115.552695 Z M176.976262,137.634778 L177,137.634778 L168.691748,177.798 L21.9126214,177.798 L14,137.634778 L14.0237379,137.634778 L176.976262,137.634778 L176.976262,137.634778 Z" id="id-card-14-icon" fill="#FFFFFF" sketch:type="MSShapeGroup"></path>
    </g>
</svg>