<?xml version="1.0" encoding="utf-8"?>

<!-- License Agreement at http://iconmonstr.com/license/ -->

<!DOCTYPE svg PUBLIC "-//W3C//DTD SVG 1.1//EN" "http://www.w3.org/Graphics/SVG/1.1/DTD/svg11.dtd">
<svg version="1.1" xmlns="http://www.w3.org/2000/svg" xmlns:xlink="http://www.w3.org/1999/xlink" x="0px" y="0px"
	 width="512px" height="512px" viewBox="0 0 512 512" style="enable-background:new 0 0 512 512;" xml:space="preserve">
<path id="id-card-14-icon" d="M74.107,331.528L60.643,155.065h390l-13.846,176.463h-37.495l9.341-139.463h-307l10.341,139.463
	H74.107z M401.494,82.798l4-25H107.58l4,25H401.494z M367.823,263.602h-89.78l-0.217,23.167h88.599L367.823,263.602z
	 M423.744,133.298l4-30H82.58l4,30H423.744z M370.464,219.842h-92.008l-0.219,23.167h90.828L370.464,219.842z M363.787,330.528
	l1.396-23.167h-58.091l-0.624,23.167H363.787z M160.918,302.826c-17.914,3.726-15.924,12.244-14.843,27.702h124.771
	c0.084-15.458,1.524-23.977-16.629-27.702c-18.242-3.728-35.288-6.992-27.34-20.73c25.023-41.815,5.63-64.179-22.048-64.179
	c-28.224,0-45.647,23.221-17.908,64.179C196.006,295.918,178.531,299.18,160.918,302.826z M461.94,356.528H462l-21,97.674H70
	l-20-97.674h0.06H461.94z"/>
</svg>
