<?xml version="1.0" encoding="UTF-8" standalone="no"?>
<svg width="192px" height="192px" viewBox="0 0 192 192" version="1.1" xmlns="http://www.w3.org/2000/svg" xmlns:xlink="http://www.w3.org/1999/xlink" xmlns:sketch="http://www.bohemiancoding.com/sketch/ns">
    <!-- Generator: Sketch 3.3.2 (12043) - http://www.bohemiancoding.com/sketch -->
    <title>logo</title>
    <desc>Created with Sketch.</desc>
    <defs></defs>
    <g id="Page-1" stroke="none" stroke-width="1" fill="none" fill-rule="evenodd" sketch:type="MSPage">
        <rect id="Rectangle-1" fill="#2962FF" sketch:type="MSShapeGroup" x="0" y="0" width="192" height="192" rx="10"></rect>
        <path d="M27.1397127,125.660619 L22.035092,56.1258169 L169.896208,56.1258169 L164.64676,125.660619 L150.43124,125.660619 L153.972704,70.7055739 L37.5794657,70.7055739 L41.5000601,125.660619 L27.1397127,125.660619 L27.1397127,125.660619 Z M151.262296,27.6491872 L152.77882,17.798 L39.8303669,17.798 L41.3468912,27.6491872 L151.262296,27.6491872 L151.262296,27.6491872 Z M138.496573,98.894549 L104.458186,98.894549 L104.375915,108.023447 L137.966548,108.023447 L138.496573,98.894549 L138.496573,98.894549 Z M159.697962,47.5485853 L161.214486,35.7271607 L30.3520902,35.7271607 L31.8686145,47.5485853 L159.697962,47.5485853 L159.697962,47.5485853 Z M139.497859,81.651031 L104.614767,81.651031 L104.531738,90.7799291 L138.967454,90.7799291 L139.497859,81.651031 L139.497859,81.651031 Z M136.9664,125.266571 L137.495667,116.137673 L115.471565,116.137673 L115.234987,125.266571 L136.9664,125.266571 L136.9664,125.266571 Z M60.0524598,114.350668 C53.2607058,115.818889 54.0151767,119.175385 54.4250174,125.266571 L101.72958,125.266571 C101.761427,119.175385 102.307376,115.818495 95.4250093,114.350668 C88.5089004,112.881659 82.0462322,111.595488 85.0595659,106.182063 C94.5465626,89.7049676 87.1940738,80.8924896 76.7004841,80.8924896 C65.9998889,80.8924896 59.3942883,90.0426662 69.911005,106.182063 C73.3554107,111.628588 66.7300953,112.91397 60.0524598,114.350668 L60.0524598,114.350668 Z M174.179252,135.511806 L174.202,135.511806 L166.240248,174 L25.5826214,174 L18,135.511806 L18.0227479,135.511806 L174.179252,135.511806 L174.179252,135.511806 Z" id="id-card-14-icon" fill="#FFFFFF" sketch:type="MSShapeGroup"></path>
    </g>
</svg>